<?xml version="1.0" encoding="utf-8"?>
<!-- Generator: Adobe Illustrator 27.5.0, SVG Export Plug-In . SVG Version: 6.00 Build 0)  -->
<svg version="1.1" xmlns="http://www.w3.org/2000/svg" xmlns:xlink="http://www.w3.org/1999/xlink" x="0px" y="0px"
	 viewBox="0 0 499.999 500" style="enable-background:new 0 0 499.999 500;" xml:space="preserve">
<g id="BACKGROUND">
</g>
<g id="OBJECTS">
	<g>
		<polygon style="fill:#26779B;" points="430.361,408.532 113.297,408.532 113.297,369.043 129.297,369.043 129.297,392.532 
			414.361,392.532 414.361,107.468 338.878,107.468 338.878,91.468 430.361,91.468 		"/>
		<path style="opacity:0.3;fill:#26779B;" d="M430.361,158.346c-5.81-6.516-10.891-12.266-16-15.27v213.76
			c4.854-3.188,10.491-7.145,16-11.588V158.346z"/>
		<polygon style="opacity:0.2;fill:#26779B;" points="500,163.909 430.361,91.468 430.361,408.532 113.297,408.532 204.766,500 
			500,500 		"/>
	</g>
	<g>
		<path style="fill:#9ED7F0;" d="M142.083,234.551c77.775-51.525,173.3-139.284,181.083-81.635
			c7.783,57.649,55.733,14.426,83.932,10.756c96.928-12.616,79.139,106.066,11.594,150.378
			c-67.544,44.313-182.147,65.304-164.611,14.108c17.536-51.196-42.722,7.171-88.761-3.154
			C119.282,314.678,113.365,253.576,142.083,234.551z"/>
	</g>
	<text transform="matrix(1 0 0 1 59.781 120.6105)"><tspan x="0" y="0" style="fill:#26779B; font-family:'Montserrat-ExtraBold'; font-size:50.6836px;">CONTACT</tspan><tspan x="0" y="44" style="fill:#26779B; font-family:'Montserrat-ExtraBold'; font-size:50.6836px;">US</tspan></text>
	<g>
		<ellipse style="fill:#063B59;" cx="149.131" cy="336.254" rx="89.35" ry="20.734"/>
		<g>
			<g>
				<path style="fill:#26779B;" d="M128.868,215.434h-4.81c-3.362,0-6.088,2.726-6.088,6.088v19.051
					c0,3.362,2.726,6.088,6.088,6.088h4.81c3.362,0,6.088-2.726,6.088-6.088v-19.051
					C134.956,218.159,132.231,215.434,128.868,215.434z"/>
				<path style="opacity:0.25;fill:#26779B;" d="M127.624,215.434h-1.161v31.227h1.161c4.05,0,7.333-3.283,7.333-7.332v-16.562
					C134.956,218.717,131.674,215.434,127.624,215.434z"/>
			</g>
			<g>
				<path style="fill:#26779B;" d="M168.897,215.434h4.81c3.362,0,6.088,2.726,6.088,6.088v19.051c0,3.362-2.726,6.088-6.088,6.088
					h-4.81c-3.362,0-6.088-2.726-6.088-6.088v-19.051C162.809,218.159,165.534,215.434,168.897,215.434z"/>
				<path style="opacity:0.25;fill:#26779B;" d="M170.141,215.434h1.161v31.227h-1.161c-4.05,0-7.332-3.283-7.332-7.332v-16.562
					C162.809,218.717,166.092,215.434,170.141,215.434z"/>
			</g>
			<path style="fill:#26779B;" d="M207.101,245.675c-1.714-6.193-6.993-10.74-13.374-11.507
				c-10.436-1.254-27.326-2.877-44.854-2.877c-17.484,0-34.14,1.615-44.433,2.867c-6.331,0.771-11.578,5.267-13.319,11.403
				l-16.86,59.413c-0.595,2.096-0.723,4.297-0.377,6.449l3.295,20.443c0.794,4.926,4.728,8.742,9.676,9.38
				c12.841,1.655,38.431,4.513,62.017,4.513c23.587,0,49.176-2.858,62.017-4.513c4.948-0.638,8.883-4.454,9.676-9.38l3.303-20.494
				c0.341-2.119,0.222-4.286-0.35-6.354L207.101,245.675z"/>
			<g>
				<g style="opacity:0.2;">
					<path style="fill:#26779B;" d="M194.733,270.7l-20.121-20.121h-52.828l-5.825,50.788l21.358,21.358
						c3.789,0.2,7.638,0.315,11.559,0.315c17.19,0,37.513-3.305,55.355-7.146L194.733,270.7z"/>
				</g>
				<g>
					<path style="fill:#014B7C;" d="M165.134,260.534c0.021,0.014,0.042,0.027,0.063,0.041c0.021,0.014,0.042,0.027,0.063,0.041
						c0.02,0.014,0.042,0.027,0.063,0.041c0.021,0.014,0.042,0.027,0.063,0.041c0.021,0.014,0.042,0.027,0.063,0.041
						c0.021,0.014,0.042,0.027,0.063,0.041c0.021,0.014,0.042,0.027,0.063,0.041c0.021,0.014,0.042,0.027,0.063,0.041
						c0.021,0.014,0.042,0.027,0.063,0.041c0.021,0.014,0.042,0.027,0.063,0.041c0.021,0.014,0.042,0.027,0.063,0.041
						c0.02,0.014,0.042,0.027,0.063,0.041c0.021,0.014,0.042,0.027,0.063,0.041c0.021,0.014,0.042,0.027,0.063,0.041
						c0.021,0.014,0.042,0.027,0.063,0.041c0.021,0.014,0.042,0.027,0.062,0.041c1.168,0.794,2.577,1.26,4.096,1.26
						c4.027,0,7.291-3.264,7.291-7.291c0-2.535-1.295-4.766-3.258-6.072c-0.021-0.014-0.042-0.027-0.063-0.041
						c-0.021-0.014-0.042-0.027-0.063-0.041c-0.021-0.014-0.042-0.027-0.063-0.041c-0.02-0.014-0.042-0.027-0.063-0.041
						c-0.021-0.014-0.042-0.027-0.063-0.041c-0.021-0.014-0.042-0.027-0.063-0.041c-0.021-0.014-0.042-0.027-0.063-0.041
						c-0.021-0.014-0.042-0.027-0.063-0.041c-0.02-0.014-0.042-0.027-0.063-0.041c-0.021-0.014-0.042-0.027-0.063-0.041
						c-0.021-0.014-0.042-0.027-0.063-0.041c-0.021-0.014-0.042-0.027-0.063-0.041c-0.02-0.014-0.042-0.027-0.063-0.041
						c-0.021-0.014-0.042-0.027-0.063-0.041c-0.021-0.014-0.042-0.027-0.062-0.04c-0.021-0.014-0.042-0.027-0.063-0.041
						c-1.168-0.794-2.577-1.26-4.096-1.26c-4.026,0-7.291,3.264-7.291,7.291C161.876,256.997,163.171,259.227,165.134,260.534z"/>
					<path style="fill:#014B7C;" d="M167.332,284.027c0.021,0.014,0.042,0.027,0.063,0.041c0.02,0.014,0.042,0.027,0.063,0.041
						c0.021,0.014,0.042,0.027,0.063,0.041c0.021,0.014,0.042,0.027,0.063,0.041c0.021,0.014,0.042,0.027,0.063,0.041
						c0.02,0.014,0.042,0.027,0.062,0.041c0.021,0.014,0.042,0.027,0.063,0.041c0.021,0.014,0.042,0.027,0.063,0.041
						c0.021,0.014,0.042,0.027,0.063,0.041c0.021,0.014,0.042,0.027,0.063,0.041c0.02,0.014,0.042,0.027,0.063,0.041
						c0.021,0.014,0.042,0.027,0.063,0.041c0.021,0.014,0.042,0.027,0.063,0.041c0.021,0.014,0.042,0.027,0.063,0.041
						c0.021,0.014,0.042,0.027,0.063,0.041c1.167,0.794,2.577,1.259,4.095,1.259c4.027,0,7.291-3.264,7.291-7.291
						c0-2.535-1.295-4.765-3.258-6.072c-0.021-0.014-0.042-0.027-0.063-0.041c-0.021-0.014-0.042-0.027-0.063-0.041
						c-0.021-0.014-0.042-0.027-0.063-0.041c-0.02-0.014-0.042-0.027-0.063-0.041c-0.021-0.014-0.042-0.027-0.063-0.041
						c-0.021-0.014-0.042-0.027-0.063-0.041c-0.021-0.014-0.042-0.027-0.063-0.041c-0.021-0.014-0.042-0.027-0.063-0.041
						c-0.021-0.014-0.042-0.027-0.063-0.041c-0.021-0.014-0.042-0.027-0.063-0.041c-0.021-0.014-0.042-0.027-0.063-0.041
						c-0.021-0.014-0.042-0.027-0.063-0.041c-0.02-0.014-0.042-0.027-0.063-0.041c-0.021-0.014-0.042-0.027-0.063-0.041
						c-0.021-0.014-0.042-0.027-0.063-0.041c-0.021-0.014-0.042-0.027-0.063-0.041c-1.167-0.794-2.577-1.26-4.096-1.26
						c-4.026,0-7.291,3.264-7.291,7.291c0,2.535,1.295,4.766,3.258,6.072C167.29,284,167.311,284.013,167.332,284.027z"/>
					<path style="fill:#014B7C;" d="M133.688,249.084c-0.021-0.014-0.042-0.027-0.062-0.041c-0.021-0.014-0.042-0.027-0.063-0.041
						c-0.021-0.014-0.042-0.027-0.063-0.041c-0.021-0.014-0.042-0.027-0.063-0.041c-0.021-0.014-0.042-0.027-0.063-0.041
						c-0.021-0.014-0.042-0.027-0.063-0.041c-0.021-0.014-0.042-0.027-0.063-0.041c-0.021-0.014-0.042-0.027-0.063-0.041
						c-0.021-0.014-0.042-0.027-0.063-0.041c-0.021-0.014-0.042-0.027-0.063-0.041c-0.021-0.014-0.042-0.027-0.063-0.041
						c-0.021-0.014-0.042-0.027-0.063-0.041c-0.021-0.014-0.042-0.027-0.063-0.041c-0.021-0.014-0.042-0.027-0.063-0.041
						c-0.021-0.014-0.042-0.027-0.063-0.041c-0.021-0.014-0.042-0.027-0.063-0.041c-1.168-0.794-2.577-1.26-4.096-1.26
						c-4.027,0-7.291,3.264-7.291,7.291c0,2.535,1.295,4.766,3.258,6.072c0.021,0.014,0.042,0.027,0.063,0.041
						c0.021,0.014,0.042,0.027,0.062,0.041c0.021,0.014,0.042,0.027,0.063,0.041c0.021,0.014,0.042,0.027,0.063,0.041
						c0.021,0.014,0.042,0.027,0.063,0.041c0.021,0.014,0.042,0.027,0.063,0.041c0.021,0.014,0.042,0.027,0.063,0.041
						c0.021,0.014,0.042,0.027,0.063,0.041c0.021,0.014,0.042,0.027,0.063,0.041c0.021,0.014,0.042,0.027,0.063,0.041
						c0.021,0.014,0.042,0.027,0.063,0.041c0.021,0.014,0.042,0.027,0.063,0.041c0.021,0.014,0.042,0.027,0.063,0.041
						c0.021,0.014,0.042,0.027,0.063,0.041c0.021,0.014,0.042,0.027,0.063,0.041c0.021,0.014,0.042,0.027,0.063,0.041
						c1.167,0.794,2.577,1.26,4.096,1.26c4.027,0,7.291-3.264,7.291-7.291C136.947,252.621,135.651,250.39,133.688,249.084z"/>
					<path style="fill:#014B7C;" d="M153.978,249.084c-0.021-0.014-0.042-0.027-0.063-0.041c-0.021-0.014-0.042-0.027-0.063-0.041
						c-0.021-0.014-0.042-0.027-0.063-0.041c-0.021-0.014-0.042-0.027-0.063-0.041c-0.021-0.014-0.042-0.027-0.063-0.041
						c-0.021-0.014-0.042-0.027-0.063-0.041c-0.021-0.014-0.042-0.027-0.063-0.041c-0.021-0.014-0.042-0.027-0.063-0.041
						c-0.02-0.014-0.042-0.027-0.062-0.041c-0.021-0.014-0.042-0.027-0.063-0.041c-0.021-0.014-0.042-0.027-0.063-0.041
						c-0.021-0.014-0.042-0.027-0.063-0.041c-0.021-0.014-0.042-0.027-0.063-0.041c-0.021-0.014-0.042-0.027-0.064-0.041
						c-0.02-0.014-0.042-0.027-0.062-0.04c-0.021-0.014-0.042-0.027-0.063-0.041c-1.167-0.794-2.577-1.26-4.096-1.26
						c-4.027,0-7.291,3.264-7.291,7.291c0,2.535,1.295,4.766,3.258,6.072c0.021,0.014,0.042,0.027,0.063,0.041
						c0.021,0.014,0.042,0.027,0.063,0.041c0.021,0.014,0.042,0.027,0.063,0.041c0.021,0.014,0.042,0.027,0.063,0.041
						c0.021,0.014,0.042,0.027,0.063,0.041c0.021,0.014,0.042,0.027,0.063,0.041c0.02,0.014,0.042,0.027,0.063,0.041
						c0.021,0.014,0.042,0.027,0.063,0.041c0.021,0.014,0.042,0.027,0.063,0.041c0.021,0.014,0.042,0.027,0.063,0.041
						c0.021,0.014,0.042,0.027,0.063,0.041c0.021,0.014,0.042,0.027,0.063,0.041c0.021,0.014,0.042,0.027,0.063,0.041
						c0.021,0.014,0.042,0.027,0.063,0.041c0.021,0.014,0.042,0.027,0.063,0.041c0.021,0.014,0.042,0.027,0.063,0.041
						c1.168,0.794,2.577,1.26,4.096,1.26c4.027,0,7.291-3.264,7.291-7.291C157.236,252.621,155.941,250.39,153.978,249.084z"/>
					<path style="fill:#014B7C;" d="M131.553,272.537c-0.021-0.014-0.042-0.027-0.062-0.041c-0.021-0.014-0.042-0.027-0.063-0.041
						c-0.021-0.014-0.042-0.027-0.063-0.041c-0.021-0.014-0.042-0.027-0.063-0.041c-0.021-0.014-0.042-0.027-0.063-0.041
						c-0.021-0.014-0.042-0.027-0.063-0.041c-0.021-0.014-0.042-0.027-0.063-0.041c-0.021-0.014-0.042-0.027-0.063-0.041
						c-0.021-0.014-0.042-0.027-0.063-0.041c-0.021-0.014-0.042-0.027-0.063-0.041c-0.021-0.014-0.042-0.027-0.063-0.041
						c-0.021-0.014-0.042-0.027-0.063-0.041c-0.021-0.014-0.042-0.027-0.063-0.041c-0.021-0.014-0.042-0.027-0.063-0.041
						c-0.021-0.014-0.042-0.027-0.063-0.041c-0.021-0.014-0.042-0.027-0.063-0.041c-1.168-0.794-2.577-1.26-4.096-1.26
						c-4.027,0-7.291,3.264-7.291,7.291c0,2.535,1.295,4.766,3.258,6.072c0.021,0.014,0.042,0.027,0.063,0.041
						c0.021,0.014,0.042,0.027,0.063,0.041c0.021,0.014,0.042,0.027,0.063,0.041c0.021,0.014,0.042,0.027,0.063,0.041
						c0.021,0.014,0.042,0.027,0.063,0.041c0.021,0.014,0.042,0.027,0.063,0.041c0.021,0.014,0.042,0.027,0.063,0.041
						c0.021,0.014,0.042,0.027,0.063,0.041c0.021,0.014,0.042,0.027,0.063,0.041c0.021,0.014,0.042,0.027,0.063,0.041
						c0.021,0.014,0.042,0.027,0.063,0.041c0.021,0.014,0.042,0.027,0.063,0.041c0.021,0.014,0.042,0.027,0.063,0.041
						c0.021,0.014,0.042,0.027,0.063,0.041c0.021,0.014,0.042,0.027,0.063,0.041c0.021,0.014,0.042,0.027,0.063,0.041
						c1.168,0.794,2.577,1.259,4.095,1.259c4.027,0,7.291-3.264,7.291-7.291C134.811,276.074,133.516,273.843,131.553,272.537z"/>
					<path style="fill:#014B7C;" d="M153.978,272.537c-0.021-0.014-0.042-0.027-0.063-0.041c-0.021-0.014-0.042-0.027-0.063-0.041
						c-0.021-0.014-0.042-0.027-0.063-0.041c-0.021-0.014-0.042-0.027-0.063-0.041c-0.021-0.014-0.042-0.027-0.063-0.041
						c-0.021-0.014-0.042-0.027-0.063-0.041c-0.021-0.014-0.042-0.027-0.063-0.041c-0.021-0.014-0.042-0.027-0.063-0.041
						c-0.02-0.014-0.042-0.027-0.062-0.041c-0.021-0.014-0.042-0.027-0.063-0.041c-0.021-0.014-0.042-0.027-0.063-0.041
						c-0.021-0.014-0.042-0.027-0.063-0.041c-0.021-0.014-0.042-0.027-0.063-0.041c-0.021-0.014-0.042-0.027-0.063-0.041
						c-0.021-0.014-0.042-0.027-0.063-0.041c-0.021-0.014-0.042-0.027-0.063-0.041c-1.167-0.794-2.577-1.26-4.096-1.26
						c-4.027,0-7.291,3.264-7.291,7.291c0,2.535,1.295,4.766,3.258,6.072c0.021,0.014,0.042,0.027,0.063,0.041
						c0.021,0.014,0.042,0.027,0.063,0.041c0.021,0.014,0.042,0.027,0.063,0.041c0.021,0.014,0.042,0.027,0.063,0.041
						c0.021,0.014,0.042,0.027,0.063,0.041c0.021,0.014,0.042,0.027,0.063,0.041c0.02,0.014,0.042,0.027,0.063,0.041
						c0.021,0.014,0.042,0.027,0.063,0.041c0.021,0.014,0.042,0.027,0.063,0.041c0.021,0.014,0.042,0.027,0.063,0.041
						c0.021,0.014,0.042,0.027,0.063,0.041c0.021,0.014,0.042,0.027,0.063,0.041c0.021,0.014,0.042,0.027,0.063,0.041
						c0.021,0.014,0.042,0.027,0.063,0.041c0.021,0.014,0.042,0.027,0.063,0.041c0.021,0.014,0.042,0.027,0.064,0.041
						c1.167,0.794,2.577,1.259,4.095,1.259c4.027,0,7.291-3.264,7.291-7.291C157.236,276.074,155.941,273.843,153.978,272.537z"/>
					<path style="fill:#014B7C;" d="M128.351,295.99c-0.02-0.014-0.042-0.027-0.063-0.041c-0.021-0.014-0.042-0.027-0.063-0.041
						c-0.021-0.014-0.042-0.027-0.063-0.041c-0.021-0.014-0.042-0.027-0.063-0.041c-0.021-0.014-0.042-0.027-0.063-0.041
						c-0.021-0.014-0.042-0.027-0.063-0.041c-0.021-0.014-0.042-0.027-0.063-0.041c-0.021-0.014-0.042-0.027-0.063-0.041
						c-0.021-0.014-0.042-0.027-0.063-0.041c-0.021-0.014-0.042-0.027-0.063-0.041c-0.021-0.014-0.042-0.027-0.063-0.041
						c-0.021-0.014-0.042-0.027-0.063-0.041c-0.021-0.014-0.042-0.027-0.063-0.041c-0.021-0.014-0.042-0.027-0.063-0.041
						c-0.021-0.014-0.042-0.027-0.063-0.041c-0.021-0.014-0.042-0.027-0.063-0.041c-1.168-0.794-2.577-1.26-4.096-1.26
						c-4.027,0-7.291,3.264-7.291,7.291c0,2.535,1.295,4.766,3.258,6.072c0.021,0.014,0.042,0.027,0.063,0.041
						c0.021,0.014,0.042,0.027,0.063,0.041c0.021,0.014,0.042,0.027,0.063,0.041c0.021,0.014,0.042,0.027,0.063,0.041
						c0.021,0.014,0.042,0.027,0.063,0.041c0.021,0.014,0.042,0.027,0.063,0.041c0.021,0.014,0.042,0.027,0.063,0.041
						c0.021,0.014,0.042,0.027,0.063,0.041c0.021,0.014,0.042,0.027,0.063,0.041c0.021,0.014,0.042,0.027,0.062,0.04
						c0.021,0.014,0.042,0.027,0.063,0.041c0.021,0.014,0.042,0.027,0.063,0.041c0.021,0.014,0.042,0.027,0.063,0.041
						c0.021,0.014,0.042,0.027,0.063,0.041c0.021,0.014,0.042,0.027,0.062,0.041c0.021,0.014,0.042,0.027,0.063,0.041
						c1.167,0.794,2.577,1.26,4.096,1.26c4.027,0,7.291-3.264,7.291-7.291C131.609,299.527,130.314,297.296,128.351,295.99z"/>
					<path style="fill:#014B7C;" d="M179.605,295.99c-0.021-0.014-0.042-0.027-0.063-0.041c-0.021-0.014-0.042-0.027-0.063-0.041
						c-0.021-0.014-0.042-0.027-0.063-0.041c-0.021-0.014-0.042-0.027-0.063-0.041c-0.021-0.014-0.042-0.027-0.063-0.041
						c-0.021-0.014-0.042-0.027-0.063-0.041c-0.021-0.014-0.042-0.027-0.063-0.041c-0.021-0.014-0.042-0.027-0.063-0.041
						c-0.021-0.014-0.042-0.027-0.063-0.041c-0.021-0.014-0.042-0.027-0.063-0.041c-0.021-0.014-0.042-0.027-0.063-0.041
						c-0.021-0.014-0.042-0.027-0.063-0.041c-0.02-0.014-0.042-0.027-0.063-0.041c-0.021-0.014-0.042-0.027-0.063-0.041
						c-0.021-0.014-0.042-0.027-0.063-0.041c-0.021-0.014-0.042-0.027-0.063-0.041c-1.167-0.794-2.577-1.26-4.096-1.26
						c-4.027,0-7.291,3.264-7.291,7.291c0,2.535,1.295,4.766,3.258,6.072c0.021,0.014,0.042,0.027,0.063,0.041
						c0.021,0.014,0.042,0.027,0.063,0.041c0.021,0.014,0.042,0.027,0.062,0.041c0.021,0.014,0.042,0.027,0.063,0.041
						c0.021,0.014,0.042,0.027,0.063,0.041c0.021,0.014,0.042,0.027,0.063,0.041c0.021,0.014,0.042,0.027,0.063,0.041
						c0.021,0.014,0.042,0.027,0.063,0.041c0.021,0.014,0.042,0.027,0.063,0.041c0.021,0.014,0.042,0.027,0.062,0.04
						c0.021,0.014,0.042,0.027,0.063,0.041c0.021,0.014,0.042,0.027,0.063,0.041c0.021,0.014,0.042,0.027,0.063,0.041
						c0.021,0.014,0.042,0.027,0.063,0.041c0.021,0.014,0.042,0.027,0.063,0.041c0.02,0.014,0.042,0.027,0.063,0.041
						c1.168,0.794,2.577,1.26,4.096,1.26c4.027,0,7.291-3.264,7.291-7.291C182.863,299.527,181.568,297.296,179.605,295.99z"/>
					<path style="fill:#014B7C;" d="M153.978,295.99c-0.021-0.014-0.042-0.027-0.063-0.041c-0.021-0.014-0.042-0.027-0.063-0.041
						c-0.021-0.014-0.042-0.027-0.063-0.041c-0.021-0.014-0.042-0.027-0.063-0.041c-0.021-0.014-0.042-0.027-0.063-0.041
						c-0.021-0.014-0.042-0.027-0.063-0.041c-0.021-0.014-0.042-0.027-0.063-0.041c-0.021-0.014-0.042-0.027-0.063-0.041
						c-0.02-0.014-0.042-0.027-0.062-0.041c-0.021-0.014-0.042-0.027-0.063-0.041c-0.021-0.014-0.042-0.027-0.063-0.041
						c-0.021-0.014-0.042-0.027-0.063-0.041c-0.021-0.014-0.042-0.027-0.063-0.041c-0.021-0.014-0.042-0.027-0.063-0.041
						c-0.021-0.014-0.042-0.027-0.063-0.041c-0.021-0.014-0.042-0.027-0.063-0.041c-1.167-0.794-2.577-1.26-4.096-1.26
						c-4.027,0-7.291,3.264-7.291,7.291c0,2.535,1.295,4.766,3.258,6.072c0.021,0.014,0.042,0.027,0.063,0.041
						c0.021,0.014,0.042,0.027,0.063,0.041c0.021,0.014,0.042,0.027,0.063,0.041c0.021,0.014,0.042,0.027,0.063,0.041
						c0.021,0.014,0.042,0.027,0.063,0.041c0.021,0.014,0.042,0.027,0.063,0.041c0.02,0.014,0.042,0.027,0.063,0.041
						c0.021,0.014,0.042,0.027,0.063,0.041c0.021,0.014,0.042,0.027,0.063,0.041c0.021,0.014,0.042,0.027,0.062,0.04
						c0.021,0.014,0.042,0.027,0.063,0.041c0.021,0.014,0.042,0.027,0.063,0.041c0.021,0.014,0.042,0.027,0.063,0.041
						c0.021,0.014,0.042,0.027,0.063,0.041c0.021,0.014,0.042,0.027,0.063,0.041c0.021,0.014,0.042,0.027,0.063,0.041
						c1.168,0.794,2.577,1.26,4.096,1.26c4.027,0,7.291-3.264,7.291-7.291C157.236,299.527,155.941,297.296,153.978,295.99z"/>
				</g>
				<circle style="fill:#D2EFF7;" cx="128.588" cy="254.462" r="7.291"/>
				<circle style="fill:#D2EFF7;" cx="169.167" cy="254.462" r="7.291"/>
				<circle style="fill:#D2EFF7;" cx="148.877" cy="254.462" r="7.291"/>
				<circle style="fill:#D2EFF7;" cx="126.453" cy="277.914" r="7.291"/>
				<circle style="fill:#D2EFF7;" cx="171.302" cy="277.914" r="7.291"/>
				<circle style="fill:#D2EFF7;" cx="148.877" cy="277.914" r="7.291"/>
				
					<ellipse transform="matrix(0.7071 -0.7071 0.7071 0.7071 -176.9996 175.4196)" style="fill:#D2EFF7;" cx="123.25" cy="301.367" rx="7.291" ry="7.291"/>
				
					<ellipse transform="matrix(0.9871 -0.1598 0.1598 0.9871 -45.9212 31.7628)" style="fill:#D2EFF7;" cx="174.505" cy="301.367" rx="7.291" ry="7.291"/>
				
					<ellipse transform="matrix(0.9734 -0.229 0.229 0.9734 -65.0666 42.1094)" style="fill:#D2EFF7;" cx="148.877" cy="301.367" rx="7.291" ry="7.291"/>
			</g>
			<path style="fill:#014B7C;" d="M148.877,323.041c-28.652,0-53.81-5.652-75.084-12.483c0.029,0.289,0.045,0.579,0.091,0.866
				l3.295,20.443c0.794,4.926,4.728,8.742,9.676,9.38c12.841,1.655,38.431,4.513,62.017,4.513s49.176-2.858,62.018-4.513
				c4.948-0.638,8.883-4.454,9.676-9.38l3.303-20.494c0.006-0.036,0.006-0.073,0.012-0.109
				C202.969,316.614,172.86,323.041,148.877,323.041z"/>
			<path style="opacity:0.25;fill:#26779B;" d="M93.471,316.139l17.385-82.709c-2.338,0.247-4.489,0.494-6.416,0.729
				c-6.331,0.771-11.578,5.267-13.319,11.403l-16.86,59.413c-0.595,2.096-0.723,4.297-0.377,6.449l3.295,20.443
				c0.794,4.926,4.728,8.742,9.676,9.38c3.602,0.464,8.208,1.023,13.491,1.587L93.471,316.139z"/>
			<path style="opacity:0.25;fill:#26779B;" d="M204.284,316.139l-17.385-82.709c2.338,0.247,4.489,0.494,6.416,0.729
				c6.331,0.771,11.578,5.267,13.319,11.403l16.859,59.413c0.595,2.096,0.724,4.297,0.377,6.449l-3.295,20.443
				c-0.794,4.926-4.728,8.742-9.676,9.38c-3.602,0.464-8.208,1.023-13.491,1.587L204.284,316.139z"/>
			<g>
				<path style="fill:#26779B;" d="M255.197,209.932c-11.336-5.391-22.983-9.872-34.835-13.441
					c-46.436-13.985-96.027-13.984-142.463,0c-11.852,3.569-23.499,8.05-34.835,13.441c-7.291,3.462-10.489,11.228-7.335,16.814
					c0.672,1.223,1.344,2.445,2.017,3.668c3.67,3.919,7.266,7.892,10.787,11.917c2.299,2.605,6.217,3.265,9.501,1.686
					c6.584-3.175,13.294-5.986,20.1-8.434c3.393-1.223,5.612-4.465,5.35-7.927c-0.428-5.325-0.769-10.667-1.024-16.024
					c43.463-13.089,89.88-13.089,133.343,0c-0.255,5.356-0.597,10.698-1.024,16.024c-0.262,3.461,1.957,6.703,5.349,7.927
					c6.806,2.448,13.516,5.259,20.1,8.434c3.284,1.579,7.201,0.919,9.501-1.686c3.521-4.025,7.117-7.998,10.787-11.917
					c0.672-1.223,1.344-2.445,2.017-3.668C265.686,221.16,262.487,213.393,255.197,209.932z"/>
				<g style="opacity:0.25;">
					<path style="fill:#26779B;" d="M75.234,205.726c48.173-14.508,99.62-14.508,147.793,0c12.296,3.703,24.378,8.351,36.138,13.944
						c1.753,0.832,3.266,1.911,4.533,3.139c0.365-4.86-2.815-10.177-8.501-12.877c-11.336-5.391-22.983-9.872-34.835-13.441
						c-46.436-13.984-96.027-13.984-142.463,0c-11.852,3.569-23.499,8.05-34.834,13.441c-5.687,2.7-8.867,8.017-8.501,12.878
						c1.267-1.228,2.78-2.307,4.533-3.139C50.857,214.077,62.939,209.429,75.234,205.726z"/>
				</g>
				<g>
					<path style="fill:#014B7C;" d="M44.18,237.438c1.461,1.624,2.918,3.251,4.354,4.893c2.299,2.605,6.217,3.265,9.501,1.686
						c6.584-3.175,13.294-5.986,20.1-8.434c3.393-1.223,5.612-4.465,5.35-7.927c-0.124-1.548-0.226-3.101-0.336-4.652
						c-1.753,0.486-3.504,0.985-5.249,1.511C66.434,227.967,55.164,232.28,44.18,237.438z"/>
					<path style="fill:#014B7C;" d="M220.127,235.582c6.806,2.448,13.516,5.259,20.1,8.434c3.284,1.579,7.201,0.919,9.501-1.686
						c1.436-1.641,2.893-3.268,4.354-4.893c-10.985-5.158-22.255-9.471-33.72-12.924c-1.745-0.525-3.495-1.025-5.249-1.51
						c-0.11,1.551-0.211,3.104-0.335,4.652C214.516,231.117,216.735,234.359,220.127,235.582z"/>
				</g>
			</g>
		</g>
	</g>
	<g>
		<text transform="matrix(1 0 0 1 324.8779 258.8359)" style="fill:#26779B; font-family:'Montserrat-Bold'; font-size:12.4568px;">phone number</text>
		<text transform="matrix(1 0 0 1 323.5908 210.9639)" style="fill:#26779B; font-family:'Montserrat-Bold'; font-size:12.4568px;">e-mail adDress</text>
		<text transform="matrix(1 0 0 1 324.1933 305.2441)" style="fill:#26779B; font-family:'Montserrat-Bold'; font-size:12.4568px;">location</text>
		<g>
			<circle style="fill:#26779B;" cx="295.795" cy="207.322" r="17.925"/>
			<path style="fill:#FFFFFF;" d="M299.271,210.644c-1.825,1.924-4.867,1.982-6.791,0.157c-0.962-0.903-1.492-2.178-1.492-3.493
				c0-2.65,2.159-4.809,4.809-4.809c2.65,0,4.809,2.159,4.809,4.809v1.433c0,0.805,0.648,1.433,1.433,1.433
				c0.805,0,1.433-0.648,1.433-1.433v-1.433c0-4.239-3.454-7.694-7.694-7.694c-4.24,0-7.694,3.454-7.694,7.694
				c0,4.239,3.454,7.694,7.694,7.694c1.001,0,2.002-0.196,2.944-0.589c0.471-0.236,1.06-0.059,1.295,0.432
				c0.236,0.491,0.059,1.06-0.432,1.295c-0.039,0.02-0.079,0.039-0.137,0.059c-4.907,2.041-10.54-0.294-12.561-5.201
				c-2.022-4.907,0.294-10.54,5.201-12.561c4.907-2.022,10.54,0.294,12.561,5.201c0.53,1.158,0.785,2.414,0.785,3.67v1.433
				c0,1.865-1.492,3.376-3.356,3.376C300.959,212.136,299.899,211.567,299.271,210.644z M295.816,210.193
				c1.59,0,2.885-1.295,2.885-2.885c0-1.59-1.295-2.885-2.885-2.885c-1.59,0-2.885,1.295-2.885,2.885
				C292.931,208.897,294.227,210.193,295.816,210.193z"/>
			<path style="opacity:0.2;fill:#26779B;" d="M295.795,189.397c-9.899,0-17.925,8.025-17.925,17.925
				c0,4.981,2.034,9.484,5.314,12.733l25.344-25.344C305.279,191.431,300.775,189.397,295.795,189.397z"/>
		</g>
		<g>
			<circle style="fill:#26779B;" cx="295.795" cy="255.192" r="17.925"/>
			<path style="fill:#FFFFFF;" d="M304.484,260.06c-1.257-0.367-4.891-2.15-5.305-1.78c-0.415,0.369-2.176,1.939-2.176,1.939
				c-1.165-0.263-3.185-1.905-4.246-3.096c-1.061-1.19-2.459-3.386-2.587-4.574c0,0,1.763-1.57,2.177-1.939
				c0.415-0.369-0.939-4.183-1.159-5.474c-0.22-1.291-2.295-1.116-3.194-0.873c-0.899,0.243-4.747,6.831,2.455,14.916
				c7.203,8.085,14.19,5.02,14.536,4.155C305.328,262.468,305.741,260.427,304.484,260.06z"/>
			<path style="opacity:0.2;fill:#26779B;" d="M295.795,237.268c-9.899,0-17.925,8.025-17.925,17.925
				c0,4.844,1.93,9.232,5.053,12.458l25.33-25.33C305.027,239.198,300.639,237.268,295.795,237.268z"/>
		</g>
		<g>
			
				<ellipse transform="matrix(0.7071 -0.7071 0.7071 0.7071 -126.6284 297.4956)" style="fill:#26779B;" cx="295.795" cy="301.602" rx="17.925" ry="17.925"/>
			<path style="fill:#FFFFFF;" d="M295.845,289.443c-4.689,0-8.48,3.791-8.48,8.48c0,4.589,3.791,10.774,7.083,15.164
				c0.698,0.898,1.995,0.898,2.693,0c3.292-4.389,7.083-10.575,7.083-15.164C304.225,293.234,300.434,289.443,295.845,289.443z
				 M295.795,303.082c-2.767,0-5.01-2.243-5.01-5.01c0-2.767,2.243-5.01,5.01-5.01c2.767,0,5.01,2.243,5.01,5.01
				C300.805,300.839,298.562,303.082,295.795,303.082z"/>
			<path style="opacity:0.2;fill:#26779B;" d="M295.795,283.677c-9.899,0-17.925,8.025-17.925,17.925
				c0,4.84,1.927,9.223,5.044,12.448l25.329-25.329C305.018,285.604,300.634,283.677,295.795,283.677z"/>
		</g>
	</g>
</g>
<g id="DESIGNED_BY_FREEPIK">
	<g>
		<g id="XMLID_319_">
			<g id="XMLID_338_">
				<path id="XMLID_346_" style="fill:#1D262D;" d="M260.104,465.465c-0.433,0.443-0.804,0.932-1.108,1.453l-0.465-0.241
					c-0.067-0.297-0.35-0.502-0.659-0.466c-0.331,0.039-0.567,0.339-0.529,0.67c0.039,0.331,0.339,0.567,0.67,0.528
					c0.065-0.007,0.127-0.025,0.184-0.052l0.451,0.234c-0.251,0.554-0.433,1.139-0.539,1.743l0.747,0.132
					c0.23-1.306,0.85-2.507,1.792-3.473L260.104,465.465z"/>
				<path id="XMLID_345_" style="fill:#1D262D;" d="M265.591,463.164c-0.171,0-0.341,0.006-0.509,0.017l-0.074-0.626
					c0.188-0.149,0.296-0.389,0.266-0.645c-0.046-0.393-0.402-0.674-0.795-0.628c-0.394,0.046-0.675,0.402-0.628,0.796
					c0.03,0.254,0.189,0.461,0.404,0.563l0.073,0.624c-0.714,0.116-1.402,0.332-2.06,0.646l0.327,0.685
					c0.935-0.447,1.941-0.674,2.995-0.674c0.497,0,0.993,0.053,1.476,0.158l0.16-0.741
					C266.692,463.222,266.142,463.164,265.591,463.164z"/>
				<path id="XMLID_344_" style="fill:#1D262D;" d="M272.194,465.711c0.331-0.04,0.566-0.341,0.525-0.672
					c-0.04-0.331-0.341-0.566-0.672-0.525c-0.31,0.038-0.535,0.304-0.53,0.608l-0.416,0.363c-0.418-0.43-0.89-0.813-1.407-1.14
					l-0.404,0.642c1.135,0.715,2.021,1.727,2.564,2.925l0.69-0.313c-0.251-0.554-0.567-1.071-0.942-1.545l0.402-0.351
					C272.065,465.715,272.128,465.719,272.194,465.711z"/>
				<path id="XMLID_343_" style="fill:#1D262D;" d="M265.044,473.372c-0.386,0.023-0.775,0.035-1.157,0.035
					c-0.88,0-1.733-0.061-2.479-0.18c-0.391-0.062-0.846-0.154-1.271-0.292c1.047,1.861,3.069,3.125,5.389,3.125
					c2.855,0,5.263-1.916,5.949-4.503c-0.682,0.449-1.505,0.825-2.458,1.122C267.838,473.047,266.463,473.287,265.044,473.372z"/>
				<path id="XMLID_339_" style="fill:#1D262D;" d="M265.591,464.68c-3.351,0-6.079,2.666-6.079,5.943
					c0,0.425,0.046,0.849,0.137,1.261c0.674,0.483,2.706,0.891,5.348,0.731c2.88-0.174,5.297-0.958,6.672-2.159
					c-0.005-0.194-0.021-0.39-0.045-0.581C271.244,466.914,268.65,464.68,265.591,464.68z M263.432,471.195
					c-1.02,0-1.85-0.83-1.85-1.85c0-1.021,0.83-1.851,1.85-1.851c1.02,0,1.85,0.83,1.85,1.851
					C265.282,470.365,264.452,471.195,263.432,471.195z M268.169,470.287c-0.75,0-1.36-0.61-1.36-1.36s0.61-1.36,1.36-1.36
					s1.36,0.61,1.36,1.36S268.919,470.287,268.169,470.287z"/>
			</g>
			<path id="XMLID_336_" style="fill:#1D262D;" d="M281.595,466.547c-0.295-0.116-0.806-0.31-1.383-0.238
				c-0.551,0.069-0.844,0.341-0.844,1.007v0.866h2.229v1.717h-2.229v5.455h-1.932v-5.455h-1.339v-1.717h1.339v-0.889
				c0-1.68,0.896-2.782,2.568-2.782c0.643,0,1.157,0.121,1.59,0.308V466.547z"/>
			<path id="XMLID_334_" style="fill:#1D262D;" d="M286.297,469.878c-0.177-0.029-0.357-0.046-0.525-0.046
				c-0.896,0-1.51,0.548-1.51,1.613v3.908h-1.933v-7.172h1.873v0.784c0.451-0.673,1.14-0.977,2.021-0.977
				c0.414,0,0.848,0.128,1.095,0.337L286.297,469.878z"/>
			<path id="XMLID_331_" style="fill:#1D262D;" d="M293.965,471.757c0,0.222-0.016,0.488-0.037,0.651h-5.085
				c0.207,1.036,0.933,1.487,1.843,1.487c0.622,0,1.295-0.252,1.813-0.689l1.133,1.243c-0.814,0.748-1.851,1.089-3.057,1.089
				c-2.198,0-3.724-1.496-3.724-3.753c0-2.258,1.48-3.797,3.627-3.797C292.543,467.99,293.958,469.522,293.965,471.757z
				 M288.851,471.091h3.175c-0.178-0.918-0.732-1.437-1.562-1.437C289.554,469.655,289.021,470.203,288.851,471.091z"/>
			<path id="XMLID_328_" style="fill:#1D262D;" d="M301.619,471.757c0,0.222-0.016,0.488-0.037,0.651h-5.085
				c0.207,1.036,0.933,1.487,1.843,1.487c0.622,0,1.296-0.252,1.814-0.689l1.133,1.243c-0.815,0.748-1.851,1.089-3.058,1.089
				c-2.198,0-3.723-1.496-3.723-3.753c0-2.258,1.48-3.797,3.627-3.797C300.197,467.99,301.611,469.522,301.619,471.757z
				 M296.504,471.091h3.175c-0.178-0.918-0.733-1.437-1.561-1.437C297.208,469.655,296.674,470.203,296.504,471.091z"/>
			<path id="XMLID_325_" style="fill:#1D262D;" d="M309.964,471.764c0,2.154-1.495,3.775-3.472,3.775
				c-0.962,0-1.644-0.378-2.109-0.933v3.708h-1.925v-10.133h1.888v0.792c0.467-0.585,1.154-0.984,2.139-0.984
				C308.469,467.99,309.964,469.611,309.964,471.764z M304.287,471.764c0,1.133,0.748,1.977,1.844,1.977
				c1.14,0,1.85-0.881,1.85-1.977c0-1.095-0.71-1.976-1.85-1.976C305.035,469.789,304.287,470.632,304.287,471.764z"/>
			<path id="XMLID_322_" style="fill:#1D262D;" d="M313.068,465.836c0,0.696-0.541,1.229-1.236,1.229
				c-0.696,0-1.229-0.533-1.229-1.229c0-0.695,0.532-1.243,1.229-1.243C312.527,464.592,313.068,465.14,313.068,465.836z
				 M312.808,475.354h-1.932v-7.172h1.932V475.354z"/>
			<path id="XMLID_320_" style="fill:#1D262D;" d="M316.032,470.736l2.702-2.554h2.368l-3.478,3.375l3.501,3.797h-2.376
				l-2.717-2.901v2.901H314.1v-10.658h1.932V470.736z"/>
		</g>
		<g>
			<path style="fill:#1D262D;" d="M184.412,475.29v-1.055c-0.527,0.718-1.391,1.23-2.387,1.23c-1.846,0-3.149-1.406-3.149-3.706
				c0-2.256,1.289-3.721,3.149-3.721c0.952,0,1.816,0.469,2.387,1.245v-3.765h1.099v9.771H184.412z M184.412,473.371v-3.208
				c-0.395-0.615-1.245-1.143-2.124-1.143c-1.42,0-2.27,1.172-2.27,2.739c0,1.567,0.85,2.725,2.27,2.725
				C183.167,474.484,184.017,473.986,184.412,473.371z"/>
			<path style="fill:#1D262D;" d="M186.932,471.745c0-2.051,1.465-3.706,3.486-3.706c2.139,0,3.398,1.67,3.398,3.794v0.278h-5.727
				c0.088,1.333,1.025,2.446,2.549,2.446c0.806,0,1.626-0.322,2.182-0.894l0.527,0.718c-0.703,0.703-1.655,1.084-2.812,1.084
				C188.44,475.465,186.932,473.957,186.932,471.745z M190.403,468.947c-1.509,0-2.256,1.274-2.314,2.358h4.644
				C192.718,470.25,192.015,468.947,190.403,468.947z"/>
			<path style="fill:#1D262D;" d="M194.607,474.352l0.571-0.791c0.469,0.542,1.362,1.011,2.329,1.011c1.084,0,1.67-0.513,1.67-1.216
				c0-1.714-4.38-0.659-4.38-3.281c0-1.099,0.952-2.036,2.636-2.036c1.202,0,2.051,0.454,2.623,1.025l-0.513,0.762
				c-0.424-0.513-1.201-0.894-2.109-0.894c-0.966,0-1.567,0.483-1.567,1.113c0,1.553,4.379,0.527,4.379,3.281
				c0,1.187-0.952,2.139-2.783,2.139C196.306,475.465,195.325,475.114,194.607,474.352z"/>
			<path style="fill:#1D262D;" d="M201.477,466.471c0-0.41,0.337-0.747,0.732-0.747c0.41,0,0.747,0.337,0.747,0.747
				c0,0.41-0.337,0.732-0.747,0.732C201.814,467.204,201.477,466.881,201.477,466.471z M201.667,475.29v-7.075h1.099v7.075H201.667z
				"/>
			<path style="fill:#1D262D;" d="M204.582,477.106l0.556-0.82c0.586,0.703,1.289,0.967,2.3,0.967c1.172,0,2.271-0.571,2.271-2.124
				v-1.011c-0.513,0.718-1.377,1.26-2.373,1.26c-1.846,0-3.149-1.377-3.149-3.662c0-2.271,1.289-3.677,3.149-3.677
				c0.952,0,1.802,0.469,2.373,1.245v-1.069h1.099v6.87c0,2.344-1.641,3.076-3.369,3.076
				C206.237,478.161,205.416,477.925,204.582,477.106z M209.708,473.253v-3.091c-0.381-0.615-1.23-1.143-2.109-1.143
				c-1.421,0-2.27,1.128-2.27,2.695c0,1.553,0.849,2.695,2.27,2.695C208.478,474.411,209.328,473.869,209.708,473.253z"/>
			<path style="fill:#1D262D;" d="M217.413,475.29v-4.629c0-1.245-0.63-1.641-1.582-1.641c-0.864,0-1.685,0.527-2.094,1.099v5.171
				h-1.099v-7.075h1.099v1.025c0.497-0.586,1.464-1.201,2.519-1.201c1.479,0,2.256,0.747,2.256,2.285v4.966H217.413z"/>
			<path style="fill:#1D262D;" d="M219.932,471.745c0-2.051,1.465-3.706,3.486-3.706c2.139,0,3.398,1.67,3.398,3.794v0.278h-5.727
				c0.088,1.333,1.025,2.446,2.548,2.446c0.806,0,1.626-0.322,2.183-0.894l0.527,0.718c-0.703,0.703-1.655,1.084-2.813,1.084
				C221.441,475.465,219.932,473.957,219.932,471.745z M223.404,468.947c-1.509,0-2.256,1.274-2.314,2.358h4.643
				C225.718,470.25,225.015,468.947,223.404,468.947z"/>
			<path style="fill:#1D262D;" d="M233.35,475.29v-1.055c-0.527,0.718-1.392,1.23-2.388,1.23c-1.845,0-3.149-1.406-3.149-3.706
				c0-2.256,1.289-3.721,3.149-3.721c0.952,0,1.817,0.469,2.388,1.245v-3.765h1.098v9.771H233.35z M233.35,473.371v-3.208
				c-0.396-0.615-1.245-1.143-2.124-1.143c-1.421,0-2.27,1.172-2.27,2.739c0,1.567,0.85,2.725,2.27,2.725
				C232.105,474.484,232.954,473.986,233.35,473.371z"/>
			<path style="fill:#1D262D;" d="M239.692,475.29v-9.771h1.099v3.765c0.571-0.776,1.421-1.245,2.388-1.245
				c1.845,0,3.149,1.465,3.149,3.721c0,2.3-1.304,3.706-3.149,3.706c-0.996,0-1.86-0.513-2.388-1.23v1.055H239.692z M242.9,474.484
				c1.436,0,2.285-1.157,2.285-2.725c0-1.567-0.85-2.739-2.285-2.739c-0.864,0-1.729,0.527-2.109,1.143v3.208
				C241.171,473.986,242.036,474.484,242.9,474.484z"/>
			<path style="fill:#1D262D;" d="M247.528,477.062c0.161,0.073,0.425,0.117,0.601,0.117c0.483,0,0.806-0.161,1.055-0.747
				l0.469-1.069l-2.959-7.148h1.187l2.358,5.801l2.344-5.801h1.2l-3.544,8.511c-0.425,1.024-1.143,1.421-2.08,1.436
				c-0.234,0-0.6-0.044-0.806-0.104L247.528,477.062z"/>
		</g>
	</g>
</g>
</svg>
